<svg xmlns="http://www.w3.org/2000/svg" viewBox="0 0 24 24" aria-hidden="true"><path fill="currentColor" opacity=".18" stroke="none" d="M4 5h12a2 2 0 0 1 2 2v6a2 2 0 0 1-2 2H9l-4 4v-4H4a1 1 0 0 1-1-1V6a1 1 0 0 1 1-1Z"/><path stroke="currentColor" stroke-width="1.6" stroke-linecap="round" stroke-linejoin="round" fill="none" d="M4 5h12a2 2 0 0 1 2 2v6a2 2 0 0 1-2 2H9l-4 4v-4H4a1 1 0 0 1-1-1V6a1 1 0 0 1 1-1Z"/><path stroke="currentColor" stroke-width="1.6" stroke-linecap="round" stroke-linejoin="round" fill="none" d="M20 9h1v9l-3-3h-4"/></svg>